<svg xmlns="http://www.w3.org/2000/svg" width="243.599" height="50.641" viewBox="0 0 243.599 50.641">
  <g id="Layer_2" data-name="Layer 2" transform="translate(0 0.002)">
    <g id="Layer_1" data-name="Layer 1" transform="translate(0 8.049)">
      <path id="Path_193" data-name="Path 193" d="M7.32,51V15.151a3.334,3.334,0,0,1,3.341-3.341,3.388,3.388,0,0,1,3.4,3.341V36.173L26.52,23.717a3.411,3.411,0,0,1,4.738,0,3.3,3.3,0,0,1,0,4.738L22.144,37.57l9.361,11.244A3.372,3.372,0,0,1,31,53.552a3.272,3.272,0,0,1-4.63-.424l-8.929-10.8L14.1,45.665v5.348a3.388,3.388,0,0,1-3.4,3.341A3.334,3.334,0,0,1,7.32,51Z" transform="translate(-7.32 -11.779)" fill="#fff"/>
      <path id="Path_194" data-name="Path 194" d="M52.149,16.363a3.28,3.28,0,0,1-3.28,3.311,3.318,3.318,0,0,1-3.28-3.341V15.09a3.28,3.28,0,1,1,6.56,0Zm0,11v23.7a3.28,3.28,0,1,1-6.56,0V27.391a3.281,3.281,0,1,1,6.56,0Z" transform="translate(-16.056 -11.779)" fill="#fff"/>
      <path id="Path_195" data-name="Path 195" d="M87.067,40.193V54.716a3.187,3.187,0,0,1-3.156,3.218,3.28,3.28,0,0,1-3.218-3.218V40.193a6.235,6.235,0,0,0-6.32-6.174A6.066,6.066,0,0,0,68.3,40.193V54.716a1.2,1.2,0,0,1-.123.61,3.326,3.326,0,0,1-3.218,2.616,3.2,3.2,0,0,1-3.218-3.218V30.8a3.2,3.2,0,0,1,3.218-3.218,3.287,3.287,0,0,1,2.971,1.86,12.131,12.131,0,0,1,6.444-1.883A12.718,12.718,0,0,1,87.067,40.193Z" transform="translate(-19.744 -15.375)" fill="#fff"/>
      <path id="Path_196" data-name="Path 196" d="M131.016,51.05a3.283,3.283,0,0,1-6.5.664,14.824,14.824,0,0,1-8.265,2.616,15.193,15.193,0,0,1,0-30.374,14.377,14.377,0,0,1,8.142,2.554V15.081a3.311,3.311,0,1,1,6.621,0ZM116.253,30.577a7.871,7.871,0,0,0-5.711,2.493,8.813,8.813,0,0,0,0,12.154,7.864,7.864,0,0,0,5.711,2.493,7.763,7.763,0,0,0,5.711-2.493,8.813,8.813,0,0,0,0-12.154,7.763,7.763,0,0,0-5.711-2.493Z" transform="translate(-28.818 -11.77)" fill="#fff"/>
      <path id="Path_197" data-name="Path 197" d="M175.534,40.131V54.716a3.241,3.241,0,0,1-3.218,3.218,3.334,3.334,0,0,1-3.28-3.218V40.131a6.2,6.2,0,1,0-12.394.185v14.4c0,.123-.062.3-.062.424v.185c-.062.123-.062.239-.185.363v.3a3.542,3.542,0,0,1-3.041,1.945c-.247,0-.424-.062-.61-.062a3.311,3.311,0,0,1-2.616-3.156V30.839a3.218,3.218,0,0,1,3.218-3.28,3.087,3.087,0,0,1,2.917,1.821,12.787,12.787,0,0,1,6.5-1.821,12.61,12.61,0,0,1,9.554,4.2,12.517,12.517,0,0,1,9.538-4.19A12.7,12.7,0,0,1,194.5,40.324V54.716a3.241,3.241,0,0,1-3.218,3.218A3.3,3.3,0,0,1,188,54.716v-14.4a6.228,6.228,0,0,0-6.174-6.259A6.3,6.3,0,0,0,175.534,40.131Z" transform="translate(-39.922 -15.374)" fill="#fff"/>
      <path id="Path_198" data-name="Path 198" d="M243.865,42.8V54.712a3.241,3.241,0,0,1-3.218,3.218,3.311,3.311,0,0,1-3.156-2.616,13.8,13.8,0,0,1-8.08,2.616,14.114,14.114,0,0,1-10.333-4.437,15.558,15.558,0,0,1-4.129-10.7,15.334,15.334,0,0,1,4.129-10.7,13.794,13.794,0,0,1,18.405-1.891,3.3,3.3,0,0,1,3.156-2.67,3.257,3.257,0,0,1,3.218,3.28Zm-6.444,0a8.937,8.937,0,0,0-2.369-6.259,7.509,7.509,0,0,0-5.649-2.477,7.324,7.324,0,0,0-5.649,2.493,8.9,8.9,0,0,0-2.315,6.259,9.114,9.114,0,0,0,2.315,6.259,7.655,7.655,0,0,0,5.649,2.369,7.856,7.856,0,0,0,5.649-2.385A9.152,9.152,0,0,0,237.422,42.8Z" transform="translate(-54.72 -15.37)" fill="#fff"/>
      <path id="Path_199" data-name="Path 199" d="M274.692,27.306a3.426,3.426,0,0,1-3.4,3.341h-1.543V47.625a3.341,3.341,0,0,1,3.342,3.4,3.3,3.3,0,0,1-3.342,3.341A6.768,6.768,0,0,1,263,47.625V30.647h-1.759a3.334,3.334,0,0,1-3.342-3.341,3.3,3.3,0,0,1,3.342-3.341H263V15.151a3.349,3.349,0,0,1,3.4-3.341,3.3,3.3,0,0,1,3.341,3.341v8.805h1.543A3.388,3.388,0,0,1,274.692,27.306Z" transform="translate(-64.525 -11.779)" fill="#fff"/>
      <path id="Path_200" data-name="Path 200" d="M284.77,42.747A15.037,15.037,0,0,1,299.594,27.56c7.9,0,14.153,5.9,14.662,14.1v.3a1.691,1.691,0,0,1-.062.548,2.929,2.929,0,0,1-3.156,2.431H291.746a7.964,7.964,0,0,0,2.068,4.013,9.4,9.4,0,0,0,5.8,2.724,9.932,9.932,0,0,0,6.32-1.543c1.273-1.335,3.766-1.158,4.561-.185a2.778,2.778,0,0,1,0,3.951,15.357,15.357,0,0,1-10.881,4.036A15.079,15.079,0,0,1,284.77,42.747Zm6.621-2.979h17.194c-.61-2.431-3.7-6.012-8.99-6.444A8.489,8.489,0,0,0,291.391,39.768Z" transform="translate(-70.66 -15.375)" fill="#fff"/>
    </g>
    <g id="Layer_2-2" data-name="Layer 2" transform="translate(26.267 -0.002)">
      <path id="Path_201" data-name="Path 201" d="M43.3,14.593c-1.69-3.311-2.639-7.015-1.335-9.654C43.436,1.96,46.677.563,49.208,1.806c2.022,1,2.709,3.735,1.543,6.12,1.134-2.392,3.758-3.511,5.765-2.516a4.877,4.877,0,0,1,2.593,3.859,6.683,6.683,0,0,1-.671,3.758C56.6,16.746,50.4,18.2,45.6,18.274A26.177,26.177,0,0,1,43.3,14.593Z" transform="translate(-41.358 -1.341)" fill="#fd5d65"/>
      <path id="Path_202" data-name="Path 202" d="M44.585,15.223c-.664-2.794-.772-6.081.563-8.728S48.459,2.2,49.987,2.32a3.5,3.5,0,0,0-.772-.525c-2.531-1.25-5.772.154-7.246,3.141-1.3,2.647-.363,6.359,1.327,9.662a26.239,26.239,0,0,0,2.315,3.72,17.409,17.409,0,0,1-1.026-3.095Z" transform="translate(-41.358 -1.338)" fill="#e54e5c"/>
    </g>
  </g>
</svg>
