<svg id="Icons_32px_Cash" data-name="Icons/32px/Cash" xmlns="http://www.w3.org/2000/svg" width="32" height="32" viewBox="0 0 32 32">
  <g id="Group_11" data-name="Group 11">
    <rect id="Rectangle_Copy_7" data-name="Rectangle Copy 7" width="32" height="32" fill="none"/>
    <g id="bills" transform="translate(0 5)">
      <path id="Path" d="M.782,0a.782.782,0,1,0,0,1.564h3A.782.782,0,0,0,3.787,0Z" transform="translate(4.543 12.722)" fill="#654ad2"/>
      <path id="Path-2" data-name="Path" d="M.782,1.564h3A.782.782,0,0,0,3.787,0h-3a.782.782,0,1,0,0,1.564Z" transform="translate(17.714 12.722)" fill="#654ad2"/>
      <path id="Shape" d="M25.418,21.8H1.564A1.566,1.566,0,0,1,0,20.236V6.752A1.566,1.566,0,0,1,1.564,5.188H5.012V2.118A2.12,2.12,0,0,1,7.13,0H29.875a2.125,2.125,0,0,1,2.118,2.111V14.495a2.12,2.12,0,0,1-2.118,2.118H26.982v3.624A1.566,1.566,0,0,1,25.418,21.8ZM5.99,6.752a4.812,4.812,0,0,1-4.425,4.379v4.68a4.813,4.813,0,0,1,3,1.408,4.8,4.8,0,0,1,1.378,3.017H20.993a4.814,4.814,0,0,1,4.425-4.38V11.177a4.814,4.814,0,0,1-4.38-4.425ZM1.564,17.382v2.855H4.373A3.228,3.228,0,0,0,1.564,17.382Zm23.854.039a3.228,3.228,0,0,0-2.855,2.809h2.855V17.42ZM7.124,1.564a.555.555,0,0,0-.554.554v3.07H25.411a1.566,1.566,0,0,1,1.564,1.564v8.3h2.894a.555.555,0,0,0,.554-.554V2.118a.554.554,0,0,0-.554-.554ZM22.6,6.752a3.254,3.254,0,0,0,2.809,2.855V6.752H22.6Zm-21.044,0V9.561A3.227,3.227,0,0,0,4.412,6.752Z" transform="translate(0 0.013)" fill="#654ad2"/>
      <path id="Path-3" data-name="Path" d="M2.248,5.885H3.585a.684.684,0,0,1,0,1.369h-2.4a.782.782,0,1,0,0,1.564h.952V9.45a.782.782,0,1,0,1.564,0V8.818a2.247,2.247,0,0,0-.117-4.49H2.248a.684.684,0,0,1,0-1.369H4.6a.782.782,0,0,0,0-1.564H3.7V.782a.782.782,0,1,0-1.564,0V1.4a2.243,2.243,0,0,0,.117,4.484Z" transform="translate(10.571 8.394)" fill="#654ad2"/>
    </g>
  </g>
</svg>
