<svg xmlns="http://www.w3.org/2000/svg" width="907" height="740" viewBox="0 0 907 740">
  <g id="Group_50" data-name="Group 50" transform="translate(-6012 -3166)">
    <rect id="Rectangle_197" data-name="Rectangle 197" width="907" height="740" transform="translate(6012 3166)" fill="none"/>
    <g id="undraw_new_notifications_fhvw" transform="translate(6106 3166)">
      <path id="Path_285" data-name="Path 285" d="M312.55,731.364c12.1,28.843-1.664,87.789-1.664,87.789s-51.709-31.47-63.812-60.313-7.258-58.376,10.823-65.963S300.447,702.521,312.55,731.364Z" transform="translate(-240.412 -80.112)" fill="#e6e6e6"/>
      <circle id="Ellipse_55" data-name="Ellipse 55" cx="16.606" cy="16.606" r="16.606" transform="translate(370.965 236.186)" fill="#654ad2"/>
      <circle id="Ellipse_56" data-name="Ellipse 56" cx="16.606" cy="16.606" r="16.606" transform="translate(370.965 126.186)" fill="#654ad2"/>
      <circle id="Ellipse_57" data-name="Ellipse 57" cx="16.606" cy="16.606" r="16.606" transform="translate(370.965 16.186)" fill="#654ad2"/>
      <path id="Path_286" data-name="Path 286" d="M688.459,80.112a5.006,5.006,0,0,0-5,5V140.7a5.006,5.006,0,0,0,5,5h266.13a5.006,5.006,0,0,0,5-5V85.112a5.006,5.006,0,0,0-5-5Z" transform="translate(-240.412 -80.112)" fill="#e6e6e6"/>
      <path id="Path_287" data-name="Path 287" d="M690.256,84.011a2.9,2.9,0,0,0-2.9,2.9V138.9a2.9,2.9,0,0,0,2.9,2.9H952.791a2.9,2.9,0,0,0,2.9-2.9V86.91a2.9,2.9,0,0,0-2.9-2.9Z" transform="translate(-240.412 -80.112)" fill="#fff"/>
      <path id="Path_288" data-name="Path 288" d="M936.307,127.541a4.71,4.71,0,1,0,0-9.421H714.249a4.71,4.71,0,0,0,0,9.421Z" transform="translate(-240.412 -80.112)" fill="#e6e6e6"/>
      <path id="Path_289" data-name="Path 289" d="M809.8,107.077a4.71,4.71,0,1,0,0-9.421H714.249a4.71,4.71,0,0,0,0,9.421Z" transform="translate(-240.412 -80.112)" fill="#654ad2"/>
      <path id="Path_290" data-name="Path 290" d="M688.459,190.112a5.006,5.006,0,0,0-5,5V250.7a5.006,5.006,0,0,0,5,5h266.13a5.006,5.006,0,0,0,5-5V195.112a5.006,5.006,0,0,0-5-5Z" transform="translate(-240.412 -80.112)" fill="#e6e6e6"/>
      <path id="Path_291" data-name="Path 291" d="M690.256,194.011a2.9,2.9,0,0,0-2.9,2.9V248.9a2.9,2.9,0,0,0,2.9,2.9H952.791a2.9,2.9,0,0,0,2.9-2.9V196.91a2.9,2.9,0,0,0-2.9-2.9Z" transform="translate(-240.412 -80.112)" fill="#fff"/>
      <path id="Path_292" data-name="Path 292" d="M936.307,237.541a4.71,4.71,0,1,0,0-9.421H714.249a4.71,4.71,0,0,0,0,9.421Z" transform="translate(-240.412 -80.112)" fill="#e6e6e6"/>
      <path id="Path_293" data-name="Path 293" d="M809.8,217.077a4.71,4.71,0,1,0,0-9.421H714.249a4.71,4.71,0,0,0,0,9.421Z" transform="translate(-240.412 -80.112)" fill="#654ad2"/>
      <path id="Path_294" data-name="Path 294" d="M688.459,300.112a5.006,5.006,0,0,0-5,5V360.7a5.006,5.006,0,0,0,5,5h266.13a5.006,5.006,0,0,0,5-5V305.112a5.006,5.006,0,0,0-5-5Z" transform="translate(-240.412 -80.112)" fill="#e6e6e6"/>
      <path id="Path_295" data-name="Path 295" d="M690.256,304.011a2.9,2.9,0,0,0-2.9,2.9V358.9a2.9,2.9,0,0,0,2.9,2.9H952.791a2.9,2.9,0,0,0,2.9-2.9V306.91a2.9,2.9,0,0,0-2.9-2.9Z" transform="translate(-240.412 -80.112)" fill="#fff"/>
      <path id="Path_296" data-name="Path 296" d="M936.307,347.541a4.71,4.71,0,1,0,0-9.421H714.249a4.71,4.71,0,0,0,0,9.421Z" transform="translate(-240.412 -80.112)" fill="#e6e6e6"/>
      <path id="Path_297" data-name="Path 297" d="M809.8,327.077a4.71,4.71,0,1,0,0-9.421H714.249a4.71,4.71,0,0,0,0,9.421Z" transform="translate(-240.412 -80.112)" fill="#654ad2"/>
      <path id="Path_298" data-name="Path 298" d="M392.742,542.641h0A13.892,13.892,0,0,1,381.559,525l10.529-35.8,16,3,.688,36.458a13.892,13.892,0,0,1-16.034,13.988Z" transform="translate(-240.412 -80.112)" fill="#ffe2dd"/>
      <path id="Path_299" data-name="Path 299" d="M244.677,691.083l-20-3,5-195-28,84-15,118-19-5-4-123,22-145,110,25Z" fill="#2f2e41"/>
      <path id="Path_300" data-name="Path 300" d="M475.906,819.2h0a14.7,14.7,0,0,1-14.629-16.139l3.106-31.574a4.634,4.634,0,0,1,2.411-3.621c5.9-3.18,11.958-2.409,18.163,1.742a4.606,4.606,0,0,1,2,3.284l3.545,29.877a14.7,14.7,0,0,1-14.6,16.432Z" transform="translate(-240.412 -80.112)" fill="#2f2e41"/>
      <path id="Path_301" data-name="Path 301" d="M394.27,816.845h0a13.241,13.241,0,0,1-6.428-19.822l21.334-31.713c7.691-5.519,12.329-2.831,14.132,7.482l4.313-10.807,3.25,3.545a10.338,10.338,0,0,1,.547,13.323L409.29,812.53a13.241,13.241,0,0,1-15.02,4.315Z" transform="translate(-240.412 -80.112)" fill="#2f2e41"/>
      <circle id="Ellipse_58" data-name="Ellipse 58" cx="30" cy="30" r="30" transform="translate(258.677 174.083)" fill="#ffe2dd"/>
      <path id="Path_302" data-name="Path 302" d="M548.089,339.2l-51-10c6.569-14.011,11.83-18.752,6-34h41C540.473,310.989,543.967,325.814,548.089,339.2Z" transform="translate(-240.412 -80.112)" fill="#ffe2dd"/>
      <path id="Path_303" data-name="Path 303" d="M542.089,541.2l-120-34c24.036-52.9,29.071-110.983,21.944-172.38a11.109,11.109,0,0,1,10.149-12.365c15.653-1.289,31.972-2.944,48.907-5.255l19,13,22-5c7.059,3.422,14.17,6.267,20.587,9.1a25.738,25.738,0,0,1,13.993,31.655C559.116,425,546.028,483.494,542.089,541.2Z" transform="translate(-240.412 -80.112)" fill="#ff4d5f"/>
      <path id="Path_304" data-name="Path 304" d="M411.089,496.2l-23-3,54.487-157c2.772-7.986,9.645-12.308,18.013-13.5l8,1-6,93Z" transform="translate(-240.412 -80.112)" fill="#ff4d5f"/>
      <path id="Path_305" data-name="Path 305" d="M591.256,466.182h0A18.23,18.23,0,0,1,573.023,455l-21.934-52.8,18-65,4.758,3.028q.688.438,1.357.9c13.7,9.4,20.372,26.167,17.579,42.548L588.089,411.2l19.365,41.577A18.23,18.23,0,0,1,591.256,466.182Z" transform="translate(-240.412 -80.112)" fill="#ff4d5f"/>
      <path id="Path_306" data-name="Path 306" d="M531.4,239.732h0a31.858,31.858,0,0,1,14.555,4.285c1.02.594.549,2.735,1.491,3.433,1.187.879,3.765.345,4.817,1.375a31.926,31.926,0,0,1,9.494,25.723l-1.674,16.644-3.949-4.319A41.164,41.164,0,0,0,528.677,273.4q-.672-.046-1.346-.072l3.038-5.317-5.28,5.28a51.416,51.416,0,0,0-7.194.586l4.04-7.071-7.752,7.752h0A20.727,20.727,0,0,0,499.7,286.368l-.861,1.908-.964-15.879A32.006,32.006,0,0,1,531.4,239.732Z" transform="translate(-240.412 -80.112)" fill="#2f2e41"/>
      <ellipse id="Ellipse_59" data-name="Ellipse 59" cx="2.41" cy="5.723" rx="2.41" ry="5.723" transform="translate(316.463 204.16)" fill="#ffe2dd"/>
      <ellipse id="Ellipse_60" data-name="Ellipse 60" cx="2.41" cy="5.723" rx="2.41" ry="5.723" transform="translate(256.224 202.353)" fill="#ffe2dd"/>
      <path id="Path_307" data-name="Path 307" d="M616.279,364.643h0a13.892,13.892,0,0,1,9.645,18.531l-13.53,34.777L596.706,413.6l2.409-36.385a13.892,13.892,0,0,1,17.164-12.576Z" transform="translate(-240.412 -80.112)" fill="#ffe2dd"/>
      <path id="Path_308" data-name="Path 308" d="M357.677,384.083l-25-16,21-43,26,10-13,38Z" fill="#ff4d5f"/>
      <path id="Path_309" data-name="Path 309" d="M349.027,739.776H45.288V737.67h304.12Z" fill="#3f3d56"/>
    </g>
  </g>
</svg>
