<svg id="Icons_32px_Payment" data-name="Icons/32px/Payment" xmlns="http://www.w3.org/2000/svg" width="32" height="32" viewBox="0 0 32 32">
  <g id="Group_10" data-name="Group 10">
    <rect id="Rectangle" width="32" height="32" fill="none"/>
    <g id="credit-card_4_" data-name="credit-card (4)" transform="translate(0 4)">
      <path id="Shape" d="M29.328,24.6H8.6a2.674,2.674,0,0,1-2.671-2.671v-4.6H2.671A2.674,2.674,0,0,1,0,14.658V2.671A2.674,2.674,0,0,1,2.671,0H23.4a2.674,2.674,0,0,1,2.671,2.671v4.6h3.256A2.675,2.675,0,0,1,32,9.94V21.927A2.675,2.675,0,0,1,29.328,24.6ZM8.506,8.8A1.15,1.15,0,0,0,7.455,9.94V21.927A1.146,1.146,0,0,0,8.6,23.072H29.328a1.146,1.146,0,0,0,1.145-1.145V9.94a1.146,1.146,0,0,0-1.145-1.145H25.392a.828.828,0,0,1-.083,0Zm-6.98,0v5.859A1.146,1.146,0,0,0,2.671,15.8H5.928V9.94A2.656,2.656,0,0,1,6.184,8.8Zm0-3.535V7.273H8.446c.053,0,.1-.005.154-.005H24.546v-2ZM2.671,1.526A1.146,1.146,0,0,0,1.526,2.671V3.737H24.546V2.671A1.146,1.146,0,0,0,23.4,1.526Z" transform="translate(0 0.014)" fill="#654ad2"/>
      <path id="Shape-2" data-name="Shape" d="M8.278,7.359a3.642,3.642,0,0,1-2.3-.807,3.631,3.631,0,0,1-2.3.807A3.68,3.68,0,1,1,3.68,0a3.63,3.63,0,0,1,2.3.808A3.64,3.64,0,0,1,8.278,0a3.68,3.68,0,0,1,0,7.359Zm0-5.832A2.153,2.153,0,1,0,10.431,3.68,2.155,2.155,0,0,0,8.278,1.527Zm-4.6,0a2.153,2.153,0,1,0,0,4.306,2.123,2.123,0,0,0,1.332-.462A3.682,3.682,0,0,1,4.6,3.68a3.622,3.622,0,0,1,.413-1.691A2.12,2.12,0,0,0,3.68,1.526Z" transform="translate(12.985 12.267)" fill="#654ad2"/>
    </g>
  </g>
</svg>
