<svg id="Icons_32px_Transfer" data-name="Icons/32px/Transfer" xmlns="http://www.w3.org/2000/svg" width="32" height="32" viewBox="0 0 32 32">
  <g id="Group_9" data-name="Group 9">
    <rect id="Rectangle_Copy_8" data-name="Rectangle Copy 8" width="32" height="32" fill="none"/>
    <g id="Group_8" data-name="Group 8">
      <path id="Shape" d="M29.867,30.883H.853A.835.835,0,0,1,0,30.07V26.819a.835.835,0,0,1,.853-.813h.853V23.568a.835.835,0,0,1,.853-.813v-13H.853A.835.835,0,0,1,0,8.94V4.064a.82.82,0,0,1,.658-.792L15.165.021a.932.932,0,0,1,.391,0L30.062,3.272a.82.82,0,0,1,.658.792V8.94a.835.835,0,0,1-.853.813H28.16v13a.835.835,0,0,1,.853.813v2.438h.853a.835.835,0,0,1,.853.813V30.07A.835.835,0,0,1,29.867,30.883ZM1.706,27.632v1.625H29.013V27.632Zm1.707-3.251v1.625H27.307V24.381ZM24.746,9.752v13h1.707v-13Zm-17.067,0v13H23.04v-13Zm-3.413,0v13H5.973v-13ZM15.36,1.647h0L1.706,4.707v3.42H29.013V4.707L15.36,1.647Z" transform="translate(0 1.117)" fill="#654ad2"/>
      <path id="Shape-2" data-name="Shape" d="M2.56,4.876A2.5,2.5,0,0,1,0,2.438,2.5,2.5,0,0,1,2.56,0,2.5,2.5,0,0,1,5.12,2.438,2.5,2.5,0,0,1,2.56,4.876Zm0-3.251a.835.835,0,0,0-.853.813.835.835,0,0,0,.853.813.835.835,0,0,0,.854-.813A.835.835,0,0,0,2.56,1.625Z" transform="translate(12.8 3.556)" fill="#654ad2"/>
      <path id="Path" d="M2.56,5.689H4.267a.814.814,0,1,1,0,1.625H2.56A.834.834,0,0,1,1.707,6.5H0A2.5,2.5,0,0,0,2.56,8.94v.813H4.267V8.94A2.5,2.5,0,0,0,6.827,6.5a2.5,2.5,0,0,0-2.56-2.438H2.56a.834.834,0,0,1-.853-.813.834.834,0,0,1,.853-.813H4.267a.834.834,0,0,1,.853.813H6.827A2.5,2.5,0,0,0,4.267.813V0H2.56V.813A2.5,2.5,0,0,0,0,3.251,2.5,2.5,0,0,0,2.56,5.689Z" transform="translate(11.947 12.495)" fill="#654ad2"/>
    </g>
  </g>
</svg>
