<svg xmlns="http://www.w3.org/2000/svg" xmlns:xlink="http://www.w3.org/1999/xlink" width="307" height="307" viewBox="0 0 307 307">
  <defs>
    <linearGradient id="linear-gradient" x1="0.076" y1="0.269" x2="0.847" y2="0.851" gradientUnits="objectBoundingBox">
      <stop offset="0" stop-color="#654ad2"/>
      <stop offset="1" stop-color="#ff4d5f"/>
    </linearGradient>
  </defs>
  <g id="Group_12" data-name="Group 12" transform="translate(-3072 -2938)">
    <circle id="Ellipse_41" data-name="Ellipse 41" cx="153.5" cy="153.5" r="153.5" transform="translate(3072 2938)" fill="url(#linear-gradient)"/>
    <g id="file-upload" transform="translate(3155.717 3027)">
      <path id="Path_258" data-name="Path 258" d="M117.52,0H21.763A21.787,21.787,0,0,0,0,21.763v76.17A21.787,21.787,0,0,0,21.763,119.7H96.029a5.441,5.441,0,1,0,0-10.881H75.99L63.48,92.586l39.642-50.421L129.809,71.66a5.44,5.44,0,0,0,9.475-3.65V21.763A21.787,21.787,0,0,0,117.52,0ZM128.4,53.887l-21.537-23.8a5.441,5.441,0,0,0-8.312.288L56.627,83.7,42.394,65.232a5.441,5.441,0,0,0-4.309-2.119h0a5.441,5.441,0,0,0-4.309,2.123L21.8,80.8a5.441,5.441,0,0,0,8.625,6.635l7.665-9.965,24.161,31.344H21.763A10.894,10.894,0,0,1,10.881,97.933V21.763A10.894,10.894,0,0,1,21.763,10.881H117.52A10.894,10.894,0,0,1,128.4,21.763Zm0,0" fill="#fff"/>
      <path id="Path_259" data-name="Path 259" d="M96.322,72a16.322,16.322,0,1,0,16.322,16.322A16.34,16.34,0,0,0,96.322,72Zm0,21.763a5.441,5.441,0,1,1,5.441-5.441A5.447,5.447,0,0,1,96.322,93.763Zm0,0" transform="translate(-58.237 -52.413)" fill="#fff"/>
      <path id="Path_260" data-name="Path 260" d="M384.413,292.065l-.048-.049a13.561,13.561,0,0,0-19.242-.023l-10.5,10.361a5.441,5.441,0,0,0,7.641,7.747l7.032-6.935V333.7a5.441,5.441,0,0,0,10.882,0V303.331l6.73,6.952a5.44,5.44,0,1,0,7.818-7.568Zm0,0" transform="translate(-256.97 -209.653)" fill="#fff"/>
    </g>
  </g>
</svg>
