<svg xmlns="http://www.w3.org/2000/svg" width="1168" height="663" viewBox="0 0 1168 663">
  <g id="Group_44" data-name="Group 44" transform="translate(-6443 -285)">
    <g id="Group_45" data-name="Group 45">
      <rect id="Rectangle_180" data-name="Rectangle 180" width="1168" height="663" transform="translate(6443 285)" fill="none"/>
      <g id="undraw_personal_info_0okl" transform="translate(6496 335)">
        <path id="Path_261" data-name="Path 261" d="M1061.98,100.16V218.47l-2-2.98L916.49,2l-1.35-2h79.52L996,2l63.98,95.18Z" fill="#ff4d5f"/>
        <path id="Path_262" data-name="Path 262" d="M629.15,168.95A558.423,558.423,0,0,0,233.07,333.01q-13.365,13.365-25.7,27.47a556.127,556.127,0,0,0-46.51,61.05q-6.09,9.255-11.8,18.75a560.136,560.136,0,0,0-36.03,70.78q-1.695,3.99-3.31,8.01-8.985,22.155-15.99,44.89a554.272,554.272,0,0,0-22.9,119.48q-1.815,22.665-1.82,45.65v1H1130.99V168.95Zm499.84,559.14H71.01q.03-20.4,1.52-40.43A554.155,554.155,0,0,1,94.99,567.08q6.99-23.01,15.88-45.15a555.16,555.16,0,0,1,39.25-79.02q5.685-9.525,11.79-18.8a558.672,558.672,0,0,1,46.42-61.28c102.4-117.5,253.09-191.88,420.82-191.88h499.84Z" transform="translate(-69.01 -168.95)" fill="#3f3d56"/>
        <path id="Path_263" data-name="Path 263" d="M564.6,649.813c13.487,40.59,8.75,78.7,8.75,78.7s-26.6-27.7-40.09-68.288-8.75-78.7-8.75-78.7S551.116,609.223,564.6,649.813Z" transform="translate(-69.01 -168.95)" fill="#654ad2"/>
        <path id="Path_264" data-name="Path 264" d="M582.1,649.813c-13.487,40.59-8.75,78.7-8.75,78.7s26.6-27.7,40.09-68.288,8.75-78.7,8.75-78.7S595.59,609.223,582.1,649.813Z" transform="translate(-69.01 -168.95)" fill="#654ad2"/>
        <path id="Path_265" data-name="Path 265" d="M587.535,650.252c.9,42.762-14.872,77.777-14.872,77.777s-17.242-34.317-18.146-77.079,14.872-77.777,14.872-77.777S586.631,607.49,587.535,650.252Z" transform="translate(-69.01 -168.95)" fill="#3f3d56"/>
        <ellipse id="Ellipse_42" data-name="Ellipse 42" cx="38.141" cy="2.093" rx="38.141" ry="2.093" transform="translate(465.503 557.469)" fill="#3f3d56"/>
        <circle id="Ellipse_43" data-name="Ellipse 43" cx="21.641" cy="21.641" r="21.641" transform="translate(118.369 516.93)" fill="#f2f2f2"/>
        <path id="Path_266" data-name="Path 266" d="M212.99,672.51a29.3,29.3,0,0,0-29.26,29.27c0,.16,0,.32.01.48a29.329,29.329,0,0,0,16.44,25.83,28.331,28.331,0,0,0,5.37,2,29.347,29.347,0,0,0,14.89,0,28.332,28.332,0,0,0,5.37-2,29.268,29.268,0,0,0-12.82-55.58Zm7.16,55.58a26.842,26.842,0,0,1-7.16.96c-.48,0-.96-.01-1.43-.04h-.01a26.279,26.279,0,0,1-5.71-.92,27.359,27.359,0,0,1-17.85-15.45v-.01a27.26,27.26,0,1,1,32.16,15.46Z" transform="translate(-69.01 -168.95)" fill="#3f3d56"/>
        <rect id="Rectangle_181" data-name="Rectangle 181" width="162" height="28.766" transform="translate(227.99 391.524)" fill="#f2f2f2"/>
        <rect id="Rectangle_182" data-name="Rectangle 182" width="162" height="28.766" transform="translate(732.99 122.524)" fill="#f2f2f2"/>
        <rect id="Rectangle_183" data-name="Rectangle 183" width="162" height="28.766" transform="translate(732.99 185.524)" fill="#f2f2f2"/>
        <rect id="Rectangle_184" data-name="Rectangle 184" width="162" height="28.766" transform="translate(732.99 246.524)" fill="#f2f2f2"/>
        <rect id="Rectangle_185" data-name="Rectangle 185" width="162" height="28.766" transform="translate(732.99 307.524)" fill="#f2f2f2"/>
        <rect id="Rectangle_186" data-name="Rectangle 186" width="162" height="28.766" transform="translate(732.99 370.524)" fill="#f2f2f2"/>
        <rect id="Rectangle_187" data-name="Rectangle 187" width="162" height="28.766" transform="translate(732.99 433.524)" fill="#f2f2f2"/>
        <path id="Path_267" data-name="Path 267" d="M296,550.24v40H512v-40Zm214,38H298v-36H510Z" transform="translate(-69.01 -168.95)" fill="#3f3d56"/>
        <circle id="Ellipse_44" data-name="Ellipse 44" cx="10" cy="10" r="10" transform="translate(576.99 146.29)" fill="#3f3d56"/>
        <circle id="Ellipse_45" data-name="Ellipse 45" cx="10" cy="10" r="10" transform="translate(576.99 208.29)" fill="#3f3d56"/>
        <circle id="Ellipse_46" data-name="Ellipse 46" cx="10" cy="10" r="10" transform="translate(576.99 270.29)" fill="#3f3d56"/>
        <circle id="Ellipse_47" data-name="Ellipse 47" cx="10" cy="10" r="10" transform="translate(576.99 332.29)" fill="#3f3d56"/>
        <circle id="Ellipse_48" data-name="Ellipse 48" cx="10" cy="10" r="10" transform="translate(576.99 394.29)" fill="#3f3d56"/>
        <circle id="Ellipse_49" data-name="Ellipse 49" cx="10" cy="10" r="10" transform="translate(576.99 456.29)" fill="#3f3d56"/>
        <rect id="Rectangle_188" data-name="Rectangle 188" width="274" height="2" transform="translate(676.99 155.29)" fill="#3f3d56"/>
        <rect id="Rectangle_189" data-name="Rectangle 189" width="274" height="2" transform="translate(676.99 217.29)" fill="#3f3d56"/>
        <rect id="Rectangle_190" data-name="Rectangle 190" width="274" height="2" transform="translate(676.99 279.29)" fill="#3f3d56"/>
        <rect id="Rectangle_191" data-name="Rectangle 191" width="274" height="2" transform="translate(676.99 341.29)" fill="#3f3d56"/>
        <rect id="Rectangle_192" data-name="Rectangle 192" width="274" height="2" transform="translate(676.99 403.29)" fill="#3f3d56"/>
        <rect id="Rectangle_193" data-name="Rectangle 193" width="274" height="2" transform="translate(676.99 465.29)" fill="#3f3d56"/>
        <path id="Path_268" data-name="Path 268" d="M1069.36,692.166,1043.074,670.6l21.565-26.286,26.286,21.565Zm-23.472-21.843,23.194,19.028,19.028-23.194-23.194-19.028Z" transform="translate(-69.01 -168.95)" fill="#3f3d56"/>
        <rect id="Rectangle_194" data-name="Rectangle 194" width="32" height="32" transform="matrix(0.773, 0.634, -0.634, 0.773, 594.768, 32.772)" fill="#654ad2"/>
        <path id="Path_269" data-name="Path 269" d="M537,387.24a132.326,132.326,0,0,1-25.6,78.44c-1.9,2.6-3.89,5.14-5.98,7.59a133.413,133.413,0,0,1-19.7,18.9c-.72.56-1.45,1.12-2.19,1.67q-4.05,3.03-8.33,5.75c-.87.55-1.74,1.09-2.62,1.61q-2.985,1.815-6.08,3.46c-1.01.54-2.03,1.07-3.05,1.58a133.091,133.091,0,0,1-133.15-8.29c-1.04-.68-2.06-1.38-3.07-2.1-1.9-1.34-3.77-2.74-5.59-4.18-1.68-1.32-3.32-2.69-4.93-4.09a133.167,133.167,0,0,1-22.35-25.04q-1.86-2.715-3.6-5.52A133.006,133.006,0,1,1,537,387.24Z" transform="translate(-69.01 -168.95)" fill="#3f3d56"/>
        <circle id="Ellipse_50" data-name="Ellipse 50" cx="36.234" cy="36.234" r="36.234" transform="translate(293.747 139.259)" fill="#ffe2dd"/>
        <path id="Path_270" data-name="Path 270" d="M374.08,361.806s12.078,27.176-4.529,37.744S396.727,453.9,396.727,453.9l48.312-51.332s-25.666-16.607-21.137-43.783Z" transform="translate(-69.01 -168.95)" fill="#ffe2dd"/>
        <path id="Path_271" data-name="Path 271" d="M485.72,492.17c-.72.56-1.45,1.12-2.19,1.67q-4.05,3.03-8.33,5.75c-.87.55-1.74,1.09-2.62,1.61l-.37-2.01,3.48-1.81Z" transform="translate(-69.01 -168.95)" fill="#a0616a"/>
        <path id="Path_272" data-name="Path 272" d="M472.58,501.2c.88-.52,1.75-1.06,2.62-1.61l.03-.4.46-1.81,19.17-75.18-58.11-26.74-33.98,20.7-30.44-18.77s-17.88.65-22.41,5.18c-3.55,3.55-20.96,11.72-28.36,15.1-2.06.94-3.34,1.51-3.34,1.51s1.14,34.26,3.42,72.49c1.82,1.44,3.69,2.84,5.59,4.18,1.01.72,2.03,1.42,3.07,2.1a133.091,133.091,0,0,0,133.15,8.29Z" transform="translate(-69.01 -168.95)" fill="#654ad2"/>
        <path id="Path_273" data-name="Path 273" d="M330.3,417.67v80.28c-1.04-.68-2.06-1.38-3.07-2.1-1.9-1.34-3.77-2.74-5.59-4.18-1.68-1.32-3.32-2.69-4.93-4.09a133.169,133.169,0,0,1-22.35-25.04q-1.86-2.715-3.6-5.52,1.47-4.83,3.3-10.67c7.55-24.15,24.16-28.68,24.16-28.68Z" transform="translate(-69.01 -168.95)" fill="#654ad2"/>
        <path id="Path_274" data-name="Path 274" d="M472.58,501.2c.88-.52,1.75-1.06,2.62-1.61q4.275-2.715,8.33-5.75c.74-.55,1.47-1.11,2.19-1.67a133.417,133.417,0,0,0,19.7-18.9c2.09-2.45,4.08-4.99,5.98-7.59-6.15-19.22-16.54-43.48-16.54-43.48l-21.14-1.51s-8.58,68.68-10.27,85.55Z" transform="translate(-69.01 -168.95)" fill="#654ad2"/>
        <path id="Path_275" data-name="Path 275" d="M376.775,302.5a68.592,68.592,0,0,1-5.668,4.337,53.886,53.886,0,0,0-6.833,6.787l-2.336,2.616c-1.988,2.226-4.1,4.767-4.014,7.75.031,1.107.371,2.181.5,3.281.529,4.361-2.137,9.155.057,12.961.634,1.1,1.616,1.961,2.315,3.021a7.062,7.062,0,0,1,1.116,4.6c2.358.1,4.292-2.016,5.032-4.258s.64-4.662,1-6.995,1.372-4.8,3.491-5.84c4.522-2.216,9.714,3.545,14.541,2.109,3.37-1,5.147-5.18,8.593-5.88,2.466-.5,4.84.964,7.132,2s5.382,1.519,7-.406c1.073-1.275,1.188-3.317,2.611-4.183,1.706-1.038,3.842.407,5.133,1.93s2.718,3.385,4.714,3.33c2.648-.074,4.676-3.6,7.189-2.763,2.837.944,1.532,5.484,3.253,7.928,1.455,2.067,4.5,1.945,7.007,1.6a2.51,2.51,0,0,0,2.613-3.351l-1.046-13.872a6.7,6.7,0,0,0-.614-2.769c-.728-1.319-2.237-1.988-3.262-3.092-2.156-2.322-2.053-6.392-4.734-8.081-1.392-.877-3.214-.85-4.6-1.743-1.773-1.144-2.344-3.436-3.586-5.141-1.776-2.439-4.88-3.569-7.88-3.88s-6.029.064-9.044-.034c-6.13-.2-12.26-1.925-18.42-.915C382.672,294.436,380.415,299,376.775,302.5Z" transform="translate(-69.01 -168.95)" fill="#2f2e41"/>
        <circle id="Ellipse_51" data-name="Ellipse 51" cx="4.186" cy="4.186" r="4.186" transform="translate(1017.83 118.324)" fill="#3f3d56"/>
        <circle id="Ellipse_52" data-name="Ellipse 52" cx="4.186" cy="4.186" r="4.186" transform="translate(988.83 67.324)" fill="#3f3d56"/>
        <circle id="Ellipse_53" data-name="Ellipse 53" cx="4.186" cy="4.186" r="4.186" transform="translate(976.83 12.324)" fill="#3f3d56"/>
      </g>
    </g>
  </g>
</svg>
